<?xml version="1.0" standalone="no"?>
<!DOCTYPE svg PUBLIC "-//W3C//DTD SVG 20010904//EN"
 "http://www.w3.org/TR/2001/REC-SVG-20010904/DTD/svg10.dtd">
<svg version="1.0" xmlns="http://www.w3.org/2000/svg"
 width="1144.000000pt" height="1280.000000pt" viewBox="0 0 1144.000000 1280.000000"
 preserveAspectRatio="xMidYMid meet">
<g transform="translate(0.000000,1280.000000) scale(0.100000,-0.100000)"
fill="#000000" stroke="none">
<path d="M3335 12765 c-38 -19 -126 -77 -195 -130 -173 -132 -345 -255 -410
-294 -95 -57 -100 -64 -100 -148 0 -54 -5 -84 -20 -112 -26 -51 -74 -91 -111
-91 -60 0 -13 -41 64 -55 51 -10 87 -40 87 -73 0 -45 17 -89 50 -131 21 -26
30 -46 26 -58 -3 -10 -33 -43 -67 -72 -88 -78 -99 -99 -99 -198 0 -96 10 -104
70 -55 72 59 113 67 150 27 21 -22 22 -30 16 -89 -5 -52 -3 -67 10 -80 21 -22
24 -21 117 23 107 52 137 57 168 32 l24 -19 -28 -30 c-37 -38 -139 -90 -197
-100 l-45 -8 -6 -51 c-4 -30 -19 -73 -35 -100 -44 -73 -46 -83 -28 -111 23
-36 62 -27 260 58 209 91 247 103 268 87 9 -7 29 -50 44 -97 28 -88 50 -111
71 -72 6 11 18 64 26 118 9 53 20 106 26 116 25 47 60 1 74 -97 15 -102 45
-107 65 -10 12 55 31 82 90 119 29 18 37 30 45 72 12 60 29 84 59 84 46 0 116
-108 116 -180 0 -48 -15 -80 -65 -140 -60 -72 -172 -324 -230 -515 -48 -160
-126 -285 -280 -444 -108 -113 -212 -193 -320 -246 -65 -31 -96 -56 -165 -127
-47 -48 -106 -101 -132 -117 -50 -32 -65 -54 -97 -144 -37 -106 -103 -176
-212 -227 -26 -11 -70 -41 -99 -66 -62 -53 -88 -67 -155 -83 -27 -7 -71 -26
-96 -42 -45 -29 -143 -127 -207 -207 -43 -54 -97 -85 -204 -116 -117 -34 -269
-49 -399 -41 -130 8 -171 17 -212 45 -39 27 -119 130 -156 202 -19 37 -34 54
-50 56 -13 2 -82 -27 -167 -69 -134 -68 -149 -73 -211 -75 -38 0 -78 -4 -91
-8 -22 -7 -52 -52 -52 -79 0 -32 -56 -117 -125 -189 -63 -65 -76 -86 -93 -142
-11 -36 -38 -93 -61 -127 -44 -65 -49 -79 -28 -79 23 0 73 37 183 135 124 111
178 150 197 142 16 -6 47 -105 87 -286 17 -73 33 -137 36 -142 3 -5 20 -15 38
-23 43 -18 70 -82 137 -326 100 -368 214 -718 318 -976 70 -176 97 -277 106
-389 9 -111 21 -168 55 -256 63 -164 88 -359 94 -734 5 -274 18 -376 54 -425
15 -20 30 -26 75 -30 64 -6 76 -16 107 -99 31 -81 57 -201 75 -347 9 -71 40
-237 70 -369 71 -318 81 -370 115 -640 44 -346 62 -424 159 -695 21 -58 35
-127 45 -215 16 -130 38 -213 91 -329 42 -94 81 -265 135 -589 28 -166 68
-378 90 -472 21 -93 44 -208 50 -255 22 -158 133 -452 195 -513 35 -34 79 -36
96 -5 35 65 -29 406 -172 921 -78 280 -100 396 -130 672 -33 311 -77 499 -175
748 -78 200 -93 278 -119 622 -15 201 -28 295 -46 342 -5 14 -29 44 -53 67
-36 35 -48 59 -74 137 -65 197 -107 443 -142 819 -11 124 -31 290 -45 370 -13
80 -27 165 -31 190 -3 25 -26 101 -50 170 -65 186 -111 364 -144 559 -36 209
-61 309 -96 384 -32 71 -89 297 -105 414 -16 124 -33 179 -75 248 -47 78 -53
94 -71 194 -8 47 -37 166 -64 264 -27 99 -54 221 -59 271 -8 65 -19 108 -41
151 -56 114 -97 337 -73 399 13 35 41 38 94 11 70 -35 178 -48 350 -42 114 4
159 10 205 27 189 68 376 120 430 120 13 0 29 -8 34 -18 18 -33 51 -353 96
-922 39 -487 44 -509 192 -854 106 -248 210 -457 252 -507 28 -33 28 -33 55
-15 34 21 83 97 98 151 8 28 11 143 10 376 -3 349 6 495 33 535 23 35 50 30
70 -12 21 -44 59 -252 74 -399 6 -60 22 -222 36 -360 14 -137 32 -311 40 -385
8 -74 29 -308 45 -520 40 -511 53 -608 111 -845 123 -494 240 -905 259 -905 5
0 13 12 16 27 8 31 -1 788 -16 1318 -19 655 -28 1810 -20 2310 12 672 31 925
71 933 26 5 38 -38 100 -353 63 -319 68 -356 99 -675 11 -113 43 -362 69 -555
27 -192 53 -381 58 -420 4 -38 8 -437 8 -885 0 -890 -2 -847 65 -1315 35 -246
37 -368 14 -655 -31 -370 1 -779 86 -1115 15 -60 71 -229 125 -375 53 -146
119 -330 147 -410 28 -80 55 -151 61 -158 16 -20 34 3 56 71 34 103 41 188 41
542 0 533 -23 917 -79 1325 -76 553 -90 813 -101 1880 -9 873 -14 1014 -45
1230 -20 142 -19 257 4 408 28 182 39 332 46 622 7 294 17 387 48 449 21 41
32 50 144 106 190 96 274 181 308 310 30 117 82 772 68 862 -13 81 28 153 87
153 44 0 99 -55 161 -161 29 -49 95 -140 146 -202 57 -69 109 -144 135 -195
38 -75 42 -92 43 -155 0 -77 -2 -83 -96 -251 -24 -43 -54 -85 -66 -93 -12 -8
-57 -19 -99 -24 -97 -12 -131 -27 -190 -81 -86 -79 -204 -279 -204 -346 0 -20
11 -68 25 -107 31 -88 23 -103 -63 -126 -75 -20 -124 -56 -166 -123 -64 -101
-82 -182 -66 -299 25 -177 85 -312 183 -410 81 -80 81 -84 13 -188 -86 -129
-111 -208 -95 -294 11 -60 27 -89 88 -158 28 -32 53 -68 56 -80 4 -14 -8 -55
-30 -107 -80 -187 -104 -347 -112 -735 -9 -471 50 -1901 108 -2595 33 -403 50
-511 95 -587 27 -47 58 -61 102 -45 78 27 148 -63 257 -328 25 -63 60 -136 76
-161 19 -30 32 -66 36 -100 5 -40 13 -60 33 -79 39 -36 51 -81 57 -211 10
-193 -27 -375 -88 -437 -57 -59 -211 -99 -336 -88 -41 3 -116 15 -165 27 -55
13 -108 19 -134 16 -25 -2 -104 -33 -182 -70 -75 -36 -148 -68 -162 -72 -76
-19 -110 -52 -110 -105 0 -60 83 -151 182 -198 92 -45 350 -72 495 -54 48 7
129 17 178 23 99 12 199 36 290 69 59 22 75 22 805 31 410 5 780 14 824 19 59
7 98 20 157 50 44 22 113 54 153 70 76 30 539 160 636 179 225 43 487 15 944
-100 505 -126 721 -167 931 -175 129 -5 164 -2 460 40 336 48 455 75 455 102
0 9 -8 29 -17 45 -13 21 -14 32 -6 40 7 7 93 14 226 20 223 9 348 20 420 40
46 12 147 69 147 82 0 27 -177 163 -229 177 -66 17 -243 30 -631 45 -551 22
-665 33 -870 85 -63 17 -149 37 -190 45 -41 8 -178 49 -305 89 -126 41 -288
94 -360 116 -356 114 -698 284 -852 424 -171 155 -332 497 -407 867 -89 444
-114 889 -137 2506 -5 387 -16 886 -24 1110 -22 600 -20 1426 5 1914 11 217
26 552 35 744 21 475 42 736 61 767 14 22 78 38 204 53 72 8 147 22 166 30 18
8 55 37 80 64 50 54 80 64 107 34 28 -32 30 -69 6 -185 l-24 -113 1 -1955 c1
-2298 16 -3226 59 -3740 22 -272 34 -511 45 -945 20 -774 33 -1018 61 -1079
14 -31 38 -41 55 -24 33 33 49 389 66 1459 13 862 1 1770 -27 2044 -19 182
-19 337 0 461 20 130 19 187 -5 379 -39 308 -36 699 5 855 19 73 19 113 -5
270 -32 216 -42 617 -38 1505 3 609 7 819 17 848 8 25 24 45 51 62 21 13 41
29 45 35 4 6 6 62 6 123 l-2 112 62 127 c60 122 62 129 51 165 -13 41 -127
228 -177 289 l-31 37 -106 -36 c-111 -39 -157 -44 -222 -26 -51 14 -82 5 -100
-29 -8 -15 -26 -76 -40 -137 -32 -130 -88 -273 -117 -297 -25 -21 -88 -23
-157 -7 -129 32 -395 155 -519 241 -149 103 -223 213 -269 397 -34 140 -70
214 -206 427 -63 98 -143 229 -178 289 -116 201 -197 287 -402 426 -217 147
-300 174 -528 173 -122 0 -180 -5 -270 -24 -156 -32 -320 -34 -370 -4 -19 11
-39 33 -45 48 -9 25 -6 31 26 61 63 57 205 101 377 115 62 6 121 14 131 19 9
5 30 35 45 66 16 31 49 78 72 105 69 75 55 98 -54 84 -112 -13 -243 -66 -389
-156 -104 -63 -163 -78 -163 -42 0 8 12 38 26 66 31 62 28 87 -20 163 -55 85
-68 95 -129 95 -63 0 -151 -24 -191 -53 -32 -22 -56 -72 -56 -115 0 -27 -15
-52 -32 -52 -4 0 -19 12 -33 28 -23 25 -55 95 -100 217 -36 98 -183 223 -361
307 -75 35 -127 50 -332 98 -64 15 -81 13 -157 -25z m-394 -1032 c11 -30 -8
-76 -33 -81 -10 -2 -29 8 -43 22 -29 29 -23 63 15 83 29 15 49 7 61 -24z
m3988 -2265 c5 -13 16 -79 25 -148 9 -69 35 -235 58 -370 39 -239 40 -249 35
-420 -6 -191 -23 -295 -47 -295 -8 0 -19 18 -27 44 -19 67 -61 350 -84 564
-18 169 -19 217 -11 408 5 119 13 222 16 228 11 18 26 13 35 -11z m34 -2878
c-1 -177 -29 -521 -52 -655 -5 -27 -16 -90 -24 -140 -15 -85 -30 -262 -77
-926 -11 -158 -32 -371 -46 -475 -35 -255 -30 -453 25 -999 22 -220 45 -474
50 -565 11 -179 29 -284 96 -571 24 -102 51 -226 60 -275 9 -49 32 -127 50
-174 46 -121 158 -342 218 -430 61 -90 72 -148 37 -192 -40 -51 -90 -35 -231
73 -46 36 -116 87 -155 113 -139 91 -228 238 -259 430 -10 62 -32 141 -60 212
-24 62 -49 131 -55 154 -7 26 -10 153 -9 358 5 636 -4 768 -65 979 -56 190
-59 209 -57 366 2 167 -4 204 -66 477 -53 230 -64 392 -43 619 19 206 44 291
158 529 139 290 155 334 167 472 9 110 28 166 120 362 47 97 102 227 124 290
51 149 61 169 80 166 14 -3 16 -28 14 -198z"/>
<path d="M11391 568 c-13 -34 4 -61 29 -48 26 14 26 46 0 60 -17 9 -22 7 -29
-12z"/>
</g>
</svg>
